<svg class="img-fluid" id="outputsvg" xmlns="http://www.w3.org/2000/svg" style="transform: none; transform-origin: 50% 50% 0px; cursor: move; transition: none 0s ease 0s;" width="512" height="512" viewBox="0 0 5120 5120"><g id="l1uvcukS8OEl4qK7YZ3O3VD" fill="rgb(46,125,50)" style="transform: none;"><g><path id="p12gnGIByq" d="M640 4145 l0 -335 585 0 585 0 0 335 0 335 -585 0 -585 0 0 -335z"></path><path id="p19PJqaLcA" d="M640 2560 l0 -1100 585 0 585 0 0 1100 0 1100 -585 0 -585 0 0 -1100z m709 706 c8 -9 10 -205 9 -717 l-3 -704 -127 -3 -128 -3 0 721 0 720 119 0 c88 0 121 -4 130 -14z"></path><path id="poFjcBzbr" d="M640 975 l0 -335 585 0 585 0 0 335 0 335 -585 0 -585 0 0 -335z"></path></g></g><g id="lCSDmsED3hBswoPDN88BUU" fill="rgb(21,101,192)" style="transform: none;"><g><path id="piMyqF1Px" d="M3310 4145 l0 -335 585 0 585 0 0 335 0 335 -585 0 -585 0 0 -335z"></path><path id="py2vLBUlc" d="M3310 2560 l0 -1100 585 0 585 0 0 1100 0 1100 -585 0 -585 0 0 -1100z m710 0 l0 -720 -130 0 -130 0 0 720 0 720 130 0 130 0 0 -720z"></path><path id="pQKMH0Ep7" d="M3310 975 l0 -335 585 0 585 0 0 335 0 335 -585 0 -585 0 0 -335z"></path></g></g><g id="l4XLMhpMIuPJuhrtrboglWr" fill="rgb(255,193,7)" style="transform: none;"><g><path id="p1A6RrBoP" d="M2030 4250 l0 -230 530 0 530 0 0 230 0 230 -530 0 -530 0 0 -230z"></path><path id="pQX4fp1aE" d="M2030 2825 l0 -1045 530 0 530 0 0 1045 0 1045 -530 0 -530 0 0 -1045z m610 0 l0 -665 -80 0 -80 0 0 665 0 665 80 0 80 0 0 -665z"></path><path id="pTgqF35ai" d="M2030 1405 l0 -225 530 0 530 0 0 225 0 225 -530 0 -530 0 0 -225z"></path></g></g><g id="l5CC4e2YO0mCWCvO2PmRR3Z" fill="rgb(100,181,246)" style="transform: none;"><g><path id="p15EMEThQL" d="M3310 3735 l0 -105 585 0 585 0 0 105 0 105 -585 0 -585 0 0 -105z"></path><path id="p15X1gZ96S" d="M3730 2560 l0 -750 160 0 160 0 0 750 0 750 -160 0 -160 0 0 -750z"></path><path id="pFCE8f6go" d="M3310 1385 l0 -105 585 0 585 0 0 105 0 105 -585 0 -585 0 0 -105z"></path></g></g><g id="l1H21yjfa1Idh3m5qpjgZdh" fill="rgb(124,179,66)" style="transform: none;"><g><path id="pWLQAgnz2" d="M640 3735 l0 -105 585 0 585 0 0 105 0 105 -585 0 -585 0 0 -105z"></path><path id="p2ngPdZEL" d="M1069 3306 c-2 -2 -3 -340 -1 -750 l2 -747 158 3 157 3 3 734 c1 534 -1 738 -9 747 -9 11 -47 14 -159 14 -80 0 -149 -2 -151 -4z"></path><path id="paNvocEwh" d="M640 1385 l0 -105 585 0 585 0 0 105 0 105 -585 0 -585 0 0 -105z"></path></g></g><g id="l7jRQmULzb74yvIe5acMEFV" fill="rgb(255,143,0)" style="transform: none;"><g><path id="pkr0yTQ2P" d="M2030 3945 l0 -105 530 0 530 0 0 105 0 105 -530 0 -530 0 0 -105z"></path><path id="pd765JpDP" d="M2450 2825 l0 -695 110 0 110 0 0 695 0 695 -110 0 -110 0 0 -695z"></path><path id="pEKxEPyPi" d="M2030 1705 l0 -105 530 0 530 0 0 105 0 105 -530 0 -530 0 0 -105z"></path></g></g></svg>
