<svg class="img-fluid" id="outputsvg" xmlns="http://www.w3.org/2000/svg" style="transform: none; transform-origin: 50% 50% 0px; cursor: move; transition: none 0s ease 0s;" width="512" height="512" viewBox="0 0 5120 5120"><g id="l2TzJxQTI0dKykWJLKDsIKY" fill="rgb(96,125,139)" style="transform: none;"><g><path id="p2gePNzuS" d="M1609 4767 c-24 -13 -57 -43 -74 -66 l-30 -43 -5 -748 -5 -749 -48 -32 c-59 -39 -109 -103 -139 -177 -22 -56 -22 -68 -26 -496 -4 -467 2 -566 39 -638 48 -96 122 -161 222 -195 50 -17 172 -18 213 -2 52 20 644 167 648 160 5 -9 146 -448 146 -455 0 -3 -7 -6 -15 -6 -19 0 -19 -26 0 -81 31 -87 81 -119 188 -119 81 0 120 18 160 72 23 31 33 106 22 173 -6 42 -9 46 -29 41 -25 -6 -16 -31 -172 459 -50 156 -62 185 -94 217 -58 58 -76 58 -335 -7 -126 -31 -234 -59 -242 -62 -7 -3 -13 2 -13 11 0 19 0 19 -75 2 -33 -8 -61 -14 -62 -13 -1 1 30 28 68 60 l69 58 0 427 c0 406 -3 468 -54 1253 -57 878 -55 857 -110 917 -58 64 -166 81 -247 39z"></path></g></g><g id="l5KdG2LGkYzrP2rMHten4YJ" fill="rgb(244,67,54)" style="transform: none;"><g><path id="pKbjSCX1U" d="M3674 1679 c-78 -78 -144 -151 -146 -164 -8 -39 15 -88 50 -108 60 -35 83 -22 235 131 133 134 137 140 137 181 0 58 -41 101 -96 101 -35 0 -48 -10 -180 -141z"></path><path id="p17MB2kkHI" d="M3098 1471 c-1 -6 -55 -23 -118 -39 -100 -25 -115 -31 -112 -48 12 -68 6 -134 -14 -161 -35 -47 -82 -73 -131 -73 -76 0 -133 44 -159 123 -18 53 -15 52 -98 31 -16 -4 -26 -2 -26 5 0 6 -4 11 -10 11 -6 0 -10 -75 -10 -205 0 -113 3 -205 6 -205 4 0 12 7 18 15 9 12 56 3 331 -66 176 -44 322 -84 323 -90 2 -5 8 -9 13 -9 5 0 9 148 9 360 0 212 -4 360 -9 360 -5 0 -11 -4 -13 -9z"></path><path id="p8G1oMJ25" d="M3559 1191 c-23 -23 -29 -38 -29 -71 0 -33 6 -48 29 -71 l29 -29 196 0 196 0 32 29 c27 24 33 36 33 71 0 35 -6 47 -33 71 l-32 29 -196 0 -196 0 -29 -29z"></path><path id="py4r4XZbO" d="M3573 830 c-34 -20 -53 -66 -45 -106 2 -12 68 -85 146 -163 132 -131 145 -141 180 -141 55 0 96 43 96 101 0 41 -5 47 -127 171 -164 166 -185 178 -250 138z"></path></g></g><g id="l7f2SZVerI9DBJ0JcS2FcFU" fill="rgb(255,183,77)" style="transform: none;"><g><path id="p32WQcmQt" d="M1560 1475 c-106 -30 -191 -101 -241 -203 -20 -40 -24 -62 -24 -152 0 -127 19 -175 105 -261 122 -123 311 -141 458 -44 124 83 188 246 152 394 -46 192 -260 319 -450 266z"></path></g></g><g id="l4AghMjV1P7XtYBdelfAgzK" fill="rgb(176,190,197)" style="transform: none;"><g><path id="pWPF6hGc3" d="M3134 1567 c-39 -34 -43 -77 -43 -447 0 -370 4 -413 43 -447 40 -34 99 -32 137 6 l29 29 0 412 0 412 -29 29 c-38 38 -97 40 -137 6z"></path><path id="p9PvpFLmC" d="M2287 1360 c-38 -30 -47 -77 -47 -240 0 -163 9 -210 47 -240 41 -32 88 -27 130 15 l34 34 -3 196 -3 197 -33 29 c-39 35 -87 38 -125 9z"></path></g></g><g id="l5OtcMEPpuetTya4GzTRz5H" fill="rgb(69,90,100)" style="transform: none;"><g><path id="pSJdrs2Ug" d="M1881 2069 c-117 -99 -156 -141 -118 -126 6 2 67 17 134 33 l123 29 0 88 c0 48 -2 87 -4 87 -2 0 -63 -50 -135 -111z"></path></g></g></svg>
