<svg class="img-fluid" id="outputsvg" xmlns="http://www.w3.org/2000/svg" style="transform: none; transform-origin: 50% 50% 0px; cursor: move; transition: none 0s ease 0s;" width="512" height="512" viewBox="0 0 5120 5120"><g id="l3JKo4AQsTIMhU5KI2Fizlq" fill="rgb(176,190,197)" style="transform: none;"><g><path id="podQa6Rm5" d="M4480 4190 c0 -56 -3 -70 -15 -70 -13 0 -15 -180 -15 -1560 0 -1380 2 -1560 15 -1560 12 0 15 -14 15 -70 l0 -70 160 0 160 0 0 1700 0 1700 -160 0 -160 0 0 -70z"></path><path id="p17N3xbqn0" d="M2154 4148 c-65 -9 -697 -209 -754 -238 -60 -30 -141 -110 -173 -168 -40 -73 -61 -166 -54 -237 4 -33 24 -116 46 -185 31 -99 36 -126 25 -128 -21 -5 -6 -22 19 -22 12 0 68 12 124 27 80 22 103 32 103 45 0 10 -5 15 -13 12 -22 -8 -101 257 -93 313 11 84 57 145 132 174 102 39 661 209 688 209 53 0 118 -28 159 -68 33 -32 44 -56 83 -180 38 -121 43 -146 32 -159 -12 -14 -8 -16 37 -11 76 8 195 46 195 63 0 8 -6 15 -13 15 -9 0 -30 51 -57 138 -23 75 -53 157 -65 182 -76 151 -253 243 -421 218z"></path><path id="pprRzZjwo" d="M320 2560 l0 -530 160 0 160 0 0 40 c0 31 3 38 15 34 13 -5 15 49 15 456 0 407 -2 461 -15 456 -12 -4 -15 3 -15 34 l0 40 -160 0 -160 0 0 -530z"></path></g></g><g id="l2cEBaX8V71rcrL6i22phat" fill="rgb(255,138,128)" style="transform: none;"><g><path id="pZTLqPyIY" d="M833 2520 c-22 -9 -23 -14 -23 -143 l0 -134 65 -18 c36 -9 65 -21 65 -26 0 -5 16 -9 35 -9 19 0 35 -4 35 -10 0 -5 16 -10 35 -10 19 0 35 -4 35 -10 0 -5 12 -10 27 -10 37 0 143 -31 143 -41 0 -5 16 -9 35 -9 19 0 35 -4 35 -10 0 -5 16 -10 35 -10 19 0 35 -4 35 -10 0 -5 12 -10 27 -10 37 0 143 -31 143 -41 0 -5 16 -9 35 -9 19 0 35 -4 35 -10 0 -5 16 -10 35 -10 19 0 35 -4 35 -9 0 -4 21 -11 47 -14 26 -3 49 -10 51 -16 2 -6 19 -11 38 -11 19 0 34 -4 34 -10 0 -5 16 -10 35 -10 19 0 35 -4 35 -10 0 -5 12 -10 27 -10 37 0 143 -31 143 -41 0 -5 16 -9 35 -9 19 0 35 -4 35 -10 0 -5 16 -10 35 -10 19 0 35 -4 35 -10 0 -5 12 -10 27 -10 37 0 143 -31 143 -41 0 -5 16 -9 35 -9 19 0 35 -4 35 -10 0 -5 16 -10 35 -10 19 0 35 -4 35 -9 0 -4 21 -11 47 -14 26 -3 49 -10 51 -16 2 -6 19 -11 38 -11 19 0 34 -4 34 -10 0 -5 16 -10 35 -10 19 0 35 -4 35 -10 0 -5 16 -10 35 -10 19 0 35 -4 35 -9 0 -4 21 -11 47 -14 26 -3 49 -10 51 -16 2 -6 19 -11 38 -11 19 0 34 -4 34 -10 0 -5 16 -10 35 -10 19 0 35 -4 35 -10 0 -5 12 -10 27 -10 37 0 143 -31 143 -41 0 -5 16 -9 35 -9 19 0 35 -4 35 -10 0 -5 16 -10 35 -10 19 0 35 -4 35 -10 0 -5 12 -10 27 -10 37 0 143 -31 143 -41 0 -5 16 -9 35 -9 19 0 35 -4 35 -10 0 -5 16 -10 35 -10 19 0 35 -4 35 -9 0 -4 21 -11 47 -14 26 -3 49 -10 51 -16 2 -6 19 -11 38 -11 19 0 34 -4 34 -10 0 -5 16 -10 35 -10 19 0 35 -4 35 -10 0 -5 16 -10 35 -10 19 0 35 -4 35 -9 0 -4 21 -11 47 -14 26 -3 49 -10 51 -16 2 -7 33 -11 78 -11 l74 0 0 353 c-1 261 -4 356 -13 368 -9 11 -421 80 -1692 282 -924 147 -1691 267 -1705 267 -14 -1 -35 -5 -47 -10z"></path></g></g><g id="l4eljupteEMiOqQFLGAyYpJ" fill="rgb(244,67,54)" style="transform: none;"><g><path id="pm1LvsLS4" d="M3945 3969 c-530 -154 -1178 -339 -1349 -385 -55 -14 -107 -30 -115 -35 -20 -12 -1002 -294 -1054 -303 -21 -4 -72 -19 -115 -33 -42 -14 -210 -65 -372 -112 l-295 -86 0 -455 0 -455 1910 -552 c1051 -304 1913 -552 1918 -553 4 0 7 702 7 1560 0 1242 -3 1560 -12 1559 -7 -1 -242 -68 -523 -150z m-3035 -1480 c0 -7 12 -9 35 -5 23 5 35 3 35 -4 0 -8 11 -9 30 -5 20 4 30 3 30 -5 0 -8 10 -9 30 -5 20 4 30 3 30 -5 0 -9 10 -11 30 -6 19 3 30 1 30 -5 0 -7 12 -9 35 -5 23 5 35 3 35 -4 0 -8 11 -9 30 -5 20 4 30 3 30 -5 0 -8 10 -9 30 -5 20 4 30 3 30 -5 0 -9 11 -10 35 -6 23 5 35 3 35 -4 0 -8 11 -9 30 -5 20 4 30 3 30 -5 0 -8 10 -9 30 -5 20 4 30 3 30 -5 0 -9 10 -11 30 -6 19 3 30 1 30 -5 0 -7 12 -9 35 -5 23 5 35 3 35 -4 0 -8 11 -9 30 -5 20 4 30 3 30 -5 0 -8 10 -9 30 -5 20 4 30 3 30 -5 0 -9 10 -11 30 -6 19 3 30 1 30 -5 0 -7 12 -9 35 -5 23 5 35 3 35 -4 0 -8 11 -9 30 -5 20 4 30 3 30 -5 0 -8 10 -9 30 -5 20 4 30 3 30 -5 0 -9 11 -10 35 -6 23 5 35 3 35 -4 0 -8 11 -9 30 -5 20 4 30 3 30 -5 0 -8 10 -9 30 -5 20 4 30 3 30 -5 0 -9 10 -11 30 -6 19 3 30 1 30 -5 0 -7 12 -9 35 -5 23 5 35 3 35 -4 0 -8 11 -9 30 -5 20 4 30 3 30 -5 0 -8 10 -9 30 -5 20 4 30 3 30 -5 0 -9 10 -11 30 -6 19 3 30 1 30 -5 0 -7 12 -9 35 -5 23 5 35 3 35 -4 0 -8 11 -9 30 -5 20 4 30 3 30 -5 0 -8 10 -9 30 -5 20 4 30 3 30 -5 0 -9 11 -10 35 -6 23 5 35 3 35 -4 0 -8 11 -9 30 -5 20 4 30 3 30 -5 0 -8 10 -9 30 -5 20 4 30 3 30 -5 0 -9 10 -11 30 -6 19 3 30 1 30 -5 0 -7 12 -9 35 -5 23 5 35 3 35 -4 0 -8 11 -9 30 -5 20 4 30 3 30 -5 0 -8 10 -9 30 -5 20 4 30 3 30 -5 0 -9 11 -10 35 -6 23 5 35 3 35 -4 0 -8 11 -9 30 -5 20 4 30 3 30 -5 0 -8 10 -9 30 -5 20 4 30 3 30 -5 0 -8 10 -9 30 -5 20 4 30 3 30 -5 0 -9 11 -10 35 -6 23 5 35 3 35 -4 0 -8 11 -9 30 -5 20 4 30 3 30 -5 0 -8 10 -9 30 -5 20 4 30 3 30 -5 0 -9 10 -11 30 -6 19 3 30 1 30 -5 0 -7 12 -9 35 -5 23 5 35 3 35 -4 0 -8 11 -9 30 -5 20 4 30 3 30 -5 0 -8 10 -9 30 -5 20 4 30 3 30 -5 0 -9 11 -10 35 -6 23 5 35 3 35 -4 0 -8 11 -9 30 -5 20 4 30 3 30 -5 0 -8 10 -9 30 -5 20 4 30 3 30 -5 0 -9 10 -11 30 -6 19 3 30 1 30 -5 0 -7 12 -9 35 -5 24 5 35 3 35 -5 0 -7 9 -9 26 -5 51 13 53 1 54 -351 l0 -322 -45 1 c-25 0 -45 4 -45 8 0 10 -58 25 -79 21 -8 -1 -17 3 -21 9 -4 7 -21 12 -36 12 -16 0 -32 5 -35 10 -4 6 -20 10 -35 10 -16 0 -32 5 -36 11 -3 5 -20 10 -37 9 -17 0 -31 3 -31 8 0 10 -58 25 -79 21 -8 -1 -17 3 -21 9 -4 7 -21 12 -36 12 -16 0 -32 5 -36 11 -3 5 -20 10 -37 9 -17 0 -31 3 -31 7 0 10 -117 45 -145 43 -11 -1 -22 4 -26 10 -4 6 -20 10 -35 10 -16 0 -32 5 -36 11 -3 5 -20 10 -37 9 -17 0 -31 3 -31 7 0 10 -117 45 -145 43 -11 -1 -22 4 -26 10 -4 6 -20 10 -35 10 -16 0 -32 5 -36 11 -3 5 -20 10 -37 9 -17 0 -31 3 -31 8 0 10 -58 25 -79 21 -8 -1 -17 3 -21 9 -4 7 -21 12 -36 12 -16 0 -32 5 -35 10 -4 6 -20 10 -35 10 -16 0 -32 5 -36 11 -3 5 -20 10 -37 9 -17 0 -31 3 -31 8 0 10 -58 25 -79 21 -8 -1 -17 3 -21 9 -4 7 -21 12 -36 12 -16 0 -32 5 -36 11 -3 5 -20 10 -37 9 -17 0 -31 3 -31 7 0 10 -117 45 -145 43 -11 -1 -22 4 -26 10 -4 6 -20 10 -35 10 -16 0 -32 5 -36 11 -3 5 -20 10 -37 9 -17 0 -31 3 -31 7 0 10 -117 45 -145 43 -11 -1 -22 4 -26 10 -4 6 -20 10 -35 10 -16 0 -32 5 -36 11 -3 5 -20 10 -37 9 -17 0 -31 3 -31 8 0 10 -58 25 -79 21 -8 -1 -17 3 -21 9 -4 7 -21 12 -36 12 -16 0 -32 5 -36 11 -3 5 -20 10 -37 9 -17 0 -31 3 -31 7 0 10 -117 45 -145 43 -11 -1 -22 4 -26 10 -4 6 -20 10 -35 10 -16 0 -32 5 -36 11 -3 5 -20 10 -37 9 -17 0 -31 3 -31 7 0 10 -117 45 -145 43 -11 -1 -22 4 -26 10 -4 6 -20 10 -35 10 -16 0 -32 5 -36 11 -3 5 -20 10 -37 9 -17 0 -31 3 -31 8 0 4 -29 16 -65 25 l-65 18 0 104 c0 98 1 104 23 113 31 12 47 12 47 -1z"></path></g></g></svg>
