<svg class="img-fluid" id="outputsvg" xmlns="http://www.w3.org/2000/svg" style="transform: none; transform-origin: 50% 50% 0px; cursor: move; transition: none 0s ease 0s;" width="512" height="512" viewBox="0 0 5120 5120"><g id="l4FRHo0ZNfjgXcpuBj2SPsG" fill="rgb(55,71,79)" style="transform: none;"><g><path id="pkapKHjs8" d="M3530 4055 c0 -8 -73 -168 -162 -355 l-163 -341 -3 80 -3 81 -104 0 -104 0 -3 -96 -3 -96 -168 351 c-92 193 -167 358 -167 366 0 26 -28 16 -65 -22 -30 -31 -43 -37 -91 -41 -49 -4 -53 -6 -41 -21 27 -32 318 -656 308 -659 -6 -2 -11 -8 -11 -13 0 -12 667 -12 675 0 3 5 -1 11 -8 13 -16 3 282 635 308 654 24 17 18 24 -20 24 -45 0 -85 20 -118 60 -27 32 -57 40 -57 15z"></path><path id="pq4Un26Hr" d="M2970 870 c0 -5 5 -10 10 -10 6 0 10 -43 10 -110 l0 -110 105 0 105 0 0 110 c0 67 4 110 10 110 6 0 10 5 10 10 0 6 -48 10 -125 10 -77 0 -125 -4 -125 -10z"></path></g></g><g id="lIXN72Xf1AHpOvfB3vGbRy" fill="rgb(69,90,100)" style="transform: none;"><g><path id="pHkXSW2lJ" d="M761 3938 c-23 -299 -45 -569 -48 -600 l-6 -57 -139 -97 -139 -96 4 -437 c4 -482 4 -484 73 -628 90 -189 272 -338 481 -395 67 -18 115 -21 346 -25 222 -5 267 -8 267 -20 0 -12 76 -13 528 -11 586 3 556 0 620 72 42 48 55 98 51 194 -4 70 -8 86 -34 124 -17 24 -51 54 -75 68 l-45 25 -452 3 -453 3 -4 22 c-3 12 -14 177 -26 367 -29 473 -50 779 -56 818 -3 18 -11 32 -19 32 -17 0 -18 12 -55 600 -17 261 -32 499 -36 528 l-5 52 -367 0 -367 0 -44 -542z"></path><path id="pN7UaMsaS" d="M2550 3990 c0 -5 -9 -10 -20 -10 -11 0 -20 -6 -20 -14 0 -16 43 -30 48 -16 2 6 8 10 13 10 6 0 19 9 31 20 l22 20 -37 0 c-20 0 -37 -4 -37 -10z"></path></g></g><g id="l01hhrwRSyE48Vj3JdoEo1C" fill="rgb(216,27,96)" style="transform: none;"><g><path id="p2mJ3fUk8" d="M2850 2560 l0 -240 190 0 190 0 0 240 0 240 -190 0 -190 0 0 -240z"></path><path id="pTL3FSugu" d="M3280 2450 l0 -350 188 2 187 3 3 348 2 347 -190 0 -190 0 0 -350z"></path><path id="pMS7IVAhy" d="M3702 2293 l3 -508 188 -3 187 -2 0 510 0 510 -190 0 -190 0 2 -507z"></path></g></g><g id="l3zhJR9UaduzptQtBNM47Yj" fill="rgb(96,125,139)" style="transform: none;"><g><path id="pRHaakLRG" d="M2434 4241 c-40 -25 -74 -72 -81 -115 -13 -84 70 -176 159 -176 115 0 189 137 125 231 -50 75 -137 100 -203 60z"></path><path id="p166g2td6y" d="M3608 4240 c-51 -28 -80 -78 -80 -142 1 -58 19 -89 72 -125 129 -88 294 85 207 217 -45 67 -127 88 -199 50z"></path><path id="pqc3oNoXC" d="M2199 3303 l-577 -3 3 -83 c1 -45 6 -99 10 -119 l7 -38 1469 0 c1462 0 1469 0 1469 20 0 18 7 20 55 20 l55 0 0 100 0 100 -487 0 c-269 0 -699 2 -958 3 -259 2 -729 2 -1046 0z"></path><path id="pNrBn9O3y" d="M1600 1295 c0 -19 -66 -21 -73 -2 -3 6 -6 -1 -6 -18 -1 -16 9 -55 21 -85 29 -75 29 -177 0 -244 -26 -58 -30 -115 -7 -96 11 9 201 12 837 10 453 -1 1159 -2 1571 -1 l747 1 0 210 0 210 -55 0 c-42 0 -55 3 -55 15 0 13 -172 15 -1490 15 -1318 0 -1490 -2 -1490 -15z"></path></g></g><g id="l1GVenZGRia1Brc4uaau5uA" fill="rgb(255,183,77)" style="transform: none;"><g><path id="pcKdmYI5l" d="M1071 1474 c-210 -56 -347 -263 -313 -470 26 -157 126 -277 280 -334 67 -26 184 -28 258 -5 112 33 224 137 277 253 16 37 21 68 21 142 1 144 -23 200 -135 311 -100 100 -251 140 -388 103z"></path></g></g><g id="l27bOalYD9ZCvSiDRFxNlj2" fill="rgb(207,216,220)" style="transform: none;"><g><path id="p1AcyOSEEw" d="M1640 3078 c-1 -31 62 -1005 66 -1025 l4 -22 453 -3 452 -3 45 -25 c119 -67 147 -225 57 -326 -62 -72 -36 -69 -604 -72 l-513 -3 0 -159 0 -160 1490 0 1490 0 0 905 0 905 -1470 0 c-1169 0 -1470 -3 -1470 -12z m1560 -518 l0 -210 -160 0 -160 0 0 210 0 210 160 0 160 0 0 -210z m428 -107 l-3 -318 -157 -3 -158 -3 0 321 0 320 160 0 160 0 -2 -317z m422 -163 l0 -481 -157 3 -158 3 -3 478 -2 477 160 0 160 0 0 -480z"></path></g></g></svg>
