<svg class="img-fluid" id="outputsvg" xmlns="http://www.w3.org/2000/svg" style="transform: none; transform-origin: 50% 50% 0px; cursor: move; max-height: none; transition: none 0s ease 0s;" width="512" height="512" viewBox="0 0 5120 5120"><g id="l6zHQJGp6a3JBOPmertY2DA" fill="rgb(61,88,111)" style="transform: none;"><g><path id="pK5mKUgcq" d="M751 4361 c-350 -355 -593 -802 -691 -1273 -68 -326 -69 -714 -4 -1038 151 -749 659 -1417 1342 -1763 378 -192 735 -278 1157 -278 433 -1 805 89 1184 287 551 287 975 761 1204 1344 175 446 216 961 117 1446 -96 468 -347 931 -691 1275 -75 75 -103 97 -116 92 -10 -4 -75 -66 -145 -139 -192 -198 -358 -322 -587 -438 -761 -385 -1641 -293 -2321 243 -45 36 -142 127 -215 204 l-135 139 -99 -101z m1959 -1237 c348 -66 641 -314 760 -643 95 -261 81 -499 -42 -746 -55 -110 -112 -186 -204 -276 -290 -280 -681 -358 -1040 -207 -216 92 -403 268 -510 480 -126 251 -139 512 -38 769 169 433 640 706 1074 623z"></path></g></g><g id="l3H5SibhEcKZvaZFj5MJC4Q" fill="rgb(211,191,174)" style="transform: none;"><g><path id="pwiuaICEi" d="M2384 5110 c-436 -30 -863 -174 -1233 -418 -92 -61 -262 -194 -300 -235 l-24 -26 51 -58 c359 -414 846 -677 1386 -748 153 -20 420 -19 578 1 394 51 767 209 1088 463 44 35 139 124 210 197 70 74 133 134 139 134 6 0 11 4 11 9 0 14 -100 102 -203 179 -400 299 -859 467 -1364 502 -161 11 -175 11 -339 0z"></path><path id="p1G20CrchI" d="M2340 3151 c-504 -107 -855 -587 -800 -1094 48 -436 353 -784 780 -890 120 -29 340 -29 460 0 427 106 732 454 780 890 56 515 -306 1000 -820 1097 -110 21 -291 20 -400 -3z"></path></g></g></svg>
