<svg class="img-fluid" id="outputsvg" xmlns="http://www.w3.org/2000/svg" style="transform: none; transform-origin: 50% 50% 0px; cursor: move; transition: none 0s ease 0s;" width="512" height="512" viewBox="0 0 5120 5120"><g id="l417pGoTLBhFlnlaOdUQeUc" fill="rgb(238,238,238)" style="transform: none;"><g><path id="pOwA1GuKZ" d="M3915 4820 c-244 -36 -448 -185 -555 -405 -67 -136 -84 -227 -77 -399 6 -152 22 -218 79 -336 35 -70 59 -102 137 -181 79 -78 111 -102 181 -136 118 -58 185 -74 336 -80 238 -10 416 49 569 189 147 134 228 311 242 524 26 418 -223 749 -617 820 -80 14 -213 16 -295 4z m414 -575 c-112 -114 -138 -147 -143 -176 -4 -21 -18 -53 -31 -73 -25 -36 -25 -40 -25 -241 l0 -205 -80 0 -80 0 0 206 c0 202 0 206 -25 249 -24 40 -25 46 -12 77 20 47 78 95 124 103 34 5 59 26 178 145 l139 139 46 -42 47 -42 -138 -140z"></path><path id="pqPkrSo97" d="M3085 4491 c-6 -6 -70 -12 -145 -13 l-135 -3 -23 -90 c-28 -114 -46 -298 -37 -392 l7 -73 104 0 104 0 0 -30 c0 -27 3 -30 34 -30 l35 0 -6 129 c-7 151 5 245 49 374 28 86 35 150 13 128z"></path><path id="plZwB3Q3k" d="M2980 3795 c0 -19 4 -35 9 -35 4 0 11 -21 14 -47 3 -26 10 -49 16 -51 6 -2 11 -15 11 -28 0 -21 5 -24 35 -24 33 0 35 2 35 35 0 19 -4 35 -9 35 -5 0 -11 18 -15 40 -3 22 -11 40 -16 40 -6 0 -10 16 -10 35 0 33 -2 35 -35 35 -33 0 -35 -2 -35 -35z"></path><path id="p15a7qt5BR" d="M3090 3526 c0 -19 7 -41 15 -50 31 -30 17 -36 -85 -36 l-100 0 0 -33 c0 -107 379 -487 486 -487 l34 0 0 100 c0 102 6 116 36 85 9 -8 31 -15 50 -15 32 0 34 2 34 35 0 29 -4 36 -25 41 -14 3 -25 10 -25 15 0 5 -7 9 -15 9 -8 0 -15 5 -15 10 0 6 -9 10 -20 10 -11 0 -20 6 -21 13 0 6 -26 33 -58 59 -32 26 -78 72 -102 102 -24 30 -50 55 -56 56 -7 0 -13 9 -13 20 0 11 -4 20 -10 20 -5 0 -10 7 -10 15 0 8 -4 15 -9 15 -5 0 -12 11 -15 25 -5 21 -12 25 -41 25 -33 0 -35 -2 -35 -34z"></path><path id="p1CoyG5ilB" d="M3610 3065 c0 -33 2 -35 35 -35 33 0 35 2 35 35 0 33 -2 35 -35 35 -33 0 -35 -2 -35 -35z"></path><path id="pTqcMFBza" d="M4355 3070 c-117 -41 -217 -54 -366 -47 l-129 6 0 -35 c0 -31 3 -34 30 -34 l30 0 0 -104 0 -104 73 -7 c94 -9 278 9 392 37 l90 23 3 134 c1 79 7 140 14 148 18 22 -48 14 -137 -17z"></path><path id="pvDCh6bBL" d="M3690 3035 c0 -33 2 -35 35 -35 19 0 35 -4 35 -10 0 -5 16 -10 35 -10 33 0 35 2 35 35 0 33 -2 35 -35 35 -19 0 -35 5 -35 10 0 6 -16 10 -35 10 -33 0 -35 -2 -35 -35z"></path><path id="p11E54pAhN" d="M3170 1445 l0 -65 35 0 35 0 0 65 0 65 -35 0 -35 0 0 -65z"></path><path id="pI0WHBp3N" d="M2660 1427 c0 -27 11 -44 63 -95 51 -50 69 -62 95 -62 30 0 32 3 32 33 0 27 -11 44 -63 95 -51 50 -69 62 -95 62 -30 0 -32 -3 -32 -33z"></path><path id="p7ngJaSLx" d="M2420 1175 c0 -33 2 -35 35 -35 33 0 35 2 35 35 0 33 -2 35 -35 35 -33 0 -35 -2 -35 -35z"></path><path id="p12qULX0UU" d="M2630 1175 c0 -33 2 -35 35 -35 33 0 35 2 35 35 0 33 -2 35 -35 35 -33 0 -35 -2 -35 -35z"></path></g></g><g id="l3PCiPsZn1hqkztE6LIfylI" fill="rgb(207,216,220)" style="transform: none;"><g><path id="pj6m5Y7yW" d="M1005 4469 c-181 -26 -328 -178 -355 -364 -13 -95 -13 -2995 0 -3090 28 -197 174 -339 375 -365 54 -7 573 -10 1590 -8 1416 3 1513 4 1562 21 83 28 171 94 220 165 82 121 77 51 81 1094 l3 928 -28 -11 c-104 -40 -351 -74 -450 -63 l-53 7 0 103 c0 86 3 104 15 104 8 0 15 6 15 13 0 9 -27 18 -77 26 -140 24 -309 92 -416 167 -31 22 -58 34 -80 34 -29 -1 -30 -2 -14 -14 16 -12 17 -29 15 -141 l-3 -127 -87 62 c-104 74 -256 228 -321 325 l-47 70 126 3 c111 2 128 1 140 -15 12 -16 13 -15 14 14 0 22 -12 49 -35 82 -76 106 -153 303 -171 442 -4 32 -11 49 -20 49 -8 0 -14 -7 -14 -15 0 -12 -18 -15 -104 -15 l-103 0 -7 53 c-11 99 23 346 63 450 l11 27 -893 -1 c-490 -1 -919 -5 -952 -10z m675 -789 l0 -240 -240 0 -240 0 0 240 0 240 240 0 240 0 0 -240z m745 0 l0 -235 -237 -3 -238 -2 0 240 0 240 238 -2 237 -3 0 -235z m325 231 c0 -4 7 -48 15 -97 20 -111 49 -210 86 -293 16 -35 29 -68 29 -73 0 -5 -42 -7 -92 -6 l-93 3 -3 225 c-1 123 0 230 2 237 6 14 56 18 56 4z m-1070 -853 l0 -113 102 -102 c88 -89 107 -103 135 -103 l33 0 0 215 0 215 240 0 240 0 -2 -237 -3 -238 -212 -3 -213 -2 0 -33 c0 -28 14 -46 98 -129 l97 -97 115 -3 115 -3 3 -115 3 -115 97 -97 c83 -84 101 -98 129 -98 l33 0 2 213 3 212 238 3 237 2 0 -240 0 -240 -215 0 -215 0 0 -32 c0 -28 15 -48 102 -135 l103 -103 112 0 112 0 3 -112 c2 -62 2 -170 0 -240 l-3 -128 -240 0 -239 0 0 142 0 143 -97 97 c-84 84 -102 98 -130 98 l-33 0 0 -240 0 -240 -240 0 -240 0 0 240 0 240 240 0 240 0 0 32 c0 28 -15 48 -102 135 l-103 103 -137 0 -138 0 0 137 0 138 -102 102 c-88 89 -107 103 -135 103 l-33 0 0 -240 0 -240 -240 0 -240 0 2 238 3 237 238 3 237 2 0 33 c0 28 -14 46 -97 129 l-98 97 -140 3 -140 3 -3 238 -2 237 240 0 240 0 0 -112z m1410 100 c0 -19 42 -58 62 -58 17 0 18 -13 18 -205 l0 -205 -237 2 -238 3 -3 238 -2 237 200 0 c147 0 200 -3 200 -12z m431 -307 c83 -37 182 -66 293 -86 49 -8 93 -15 98 -15 5 0 8 -12 6 -27 l-3 -28 -235 0 -235 0 -3 93 c-1 50 1 92 6 92 5 0 38 -13 73 -29z m397 -663 l2 -238 -240 0 -240 0 0 233 c0 129 3 237 7 241 4 3 110 5 237 4 l231 -3 3 -237z m-2238 -748 l0 -240 -240 0 -240 0 0 240 0 240 240 0 240 0 0 -240z m2240 0 l0 -240 -240 0 -240 0 0 240 0 240 240 0 240 0 0 -240z"></path><path id="pQe9Erqbn" d="M4462 4409 c2 -29 7 -35 31 -37 37 -5 36 21 -4 49 l-30 21 3 -33z"></path><path id="pEqu2rUQx" d="M3963 4185 l-28 -24 32 -1 c44 0 63 9 63 31 0 27 -33 24 -67 -6z"></path><path id="pS6xVbif8" d="M3890 4038 c-1 -23 55 -127 68 -128 7 0 12 13 12 35 0 28 -4 35 -20 35 -16 0 -20 7 -20 35 0 28 -4 35 -20 35 -11 0 -20 -6 -20 -12z"></path></g></g><g id="l37E6ZloNn91I0g9TyXgP8y" fill="rgb(176,190,197)" style="transform: none;"><g><path id="p2FUJZ4FD" d="M4354 4505 c-9 -23 5 -35 43 -35 l36 0 -23 25 c-26 28 -48 32 -56 10z"></path><path id="pGH1nXFDN" d="M4480 4389 c0 -24 4 -30 17 -27 25 5 27 31 3 46 -18 11 -20 10 -20 -19z"></path><path id="pBBG9prHw" d="M4038 4218 c-52 -14 -50 -38 2 -38 36 0 40 3 40 25 0 14 -1 25 -2 24 -2 -1 -20 -6 -40 -11z"></path><path id="pBlNQOc2w" d="M3921 4144 c-27 -35 -26 -44 4 -44 22 0 25 4 25 35 0 19 -2 35 -4 35 -3 0 -14 -12 -25 -26z"></path><path id="p199YSQOUh" d="M4180 4040 c0 -45 23 -57 34 -17 11 41 7 57 -14 57 -17 0 -20 -7 -20 -40z"></path><path id="p8kiT4qjT" d="M1170 3680 l0 -270 270 0 270 0 0 270 0 270 -270 0 -270 0 0 -270z m500 0 l0 -230 -230 0 -230 0 0 230 0 230 230 0 230 0 0 -230z"></path><path id="pjwfWXLBd" d="M1920 3930 c0 -20 6 -20 250 -20 l250 0 0 -230 0 -230 -250 0 c-244 0 -250 0 -250 -20 0 -20 5 -20 268 -18 l267 3 0 265 0 265 -267 3 c-263 2 -268 2 -268 -18z"></path><path id="pecNb5Wfo" d="M2665 3937 c-3 -7 -4 -127 -3 -267 l3 -255 142 -3 143 -3 -40 80 c-62 124 -103 259 -125 414 l-6 47 -55 0 c-35 0 -56 -5 -59 -13z m93 -113 c20 -133 92 -344 126 -366 6 -4 -33 -8 -86 -8 l-98 0 0 230 0 230 23 0 c21 0 24 -7 35 -86z"></path><path id="pM5JLGY0b" d="M1172 2933 l3 -268 139 -3 c82 -1 145 -7 153 -14 10 -8 13 -4 13 21 0 26 -4 31 -25 31 -21 0 -25 5 -25 28 0 15 -7 60 -17 100 -17 72 -17 72 -50 72 -29 0 -33 -3 -33 -27 1 -16 7 -55 15 -88 22 -89 25 -85 -60 -85 l-75 0 0 250 c0 244 0 250 -20 250 -20 0 -20 -5 -18 -267z"></path><path id="pU0bSaHT3" d="M1670 3121 l0 -78 -57 13 c-32 8 -70 14 -85 14 -25 0 -28 -4 -28 -34 l0 -33 85 -19 c47 -10 85 -22 85 -26 0 -5 14 -8 32 -8 25 0 29 3 20 12 -8 8 -12 50 -12 125 0 106 -1 113 -20 113 -18 0 -20 -7 -20 -79z"></path><path id="pfn0vvNCJ" d="M2420 2950 l0 -250 -215 0 -215 0 0 -35 c0 -33 2 -35 31 -35 27 0 30 2 19 15 -11 13 14 15 201 17 l214 3 3 268 c2 262 2 267 -18 267 -20 0 -20 -6 -20 -250z"></path><path id="pQlqksNiU" d="M2662 2933 l3 -268 268 -3 c262 -2 267 -2 267 18 0 20 -6 20 -250 20 l-250 0 0 250 c0 244 0 250 -20 250 -20 0 -20 -5 -18 -267z"></path><path id="pKAV55bN1" d="M3072 3178 c2 -18 11 -24 36 -26 27 -3 32 -7 32 -31 0 -31 16 -51 42 -51 32 0 19 30 -33 81 -55 54 -82 63 -77 27z"></path><path id="pWXZgPE5y" d="M3412 2807 l3 -142 265 0 265 0 3 57 3 57 -48 6 c-155 22 -290 63 -414 125 l-80 40 3 -143z m150 23 c94 -37 209 -66 291 -76 51 -6 57 -9 57 -30 l0 -24 -230 0 -230 0 0 96 c0 85 2 94 15 80 8 -8 52 -29 97 -46z"></path><path id="p7WbDkZO3" d="M1640 2475 c11 -13 -17 -15 -226 -17 l-239 -3 -3 -267 c-2 -263 -2 -268 18 -268 20 0 20 6 20 250 l0 250 230 0 230 0 0 -250 c0 -243 1 -250 20 -250 19 0 20 7 20 241 0 214 2 240 15 229 13 -11 15 -8 15 19 0 26 -4 31 -25 31 -20 0 -25 5 -25 25 0 21 -5 25 -31 25 -27 0 -30 -2 -19 -15z"></path><path id="pZa4Yp8uW" d="M2200 2451 l0 -31 110 0 110 0 0 -110 0 -110 31 0 c25 0 29 3 21 13 -6 7 -13 64 -14 128 l-3 114 -114 3 c-64 1 -121 8 -128 14 -10 8 -13 4 -13 -21z"></path><path id="pUF8Cw6GS" d="M2667 2453 c-4 -3 -7 -101 -7 -216 0 -185 -2 -208 -15 -197 -13 11 -15 8 -15 -19 0 -29 2 -31 35 -31 l35 0 0 215 0 215 250 0 c243 0 250 1 250 20 0 19 -7 20 -263 20 -145 0 -267 -3 -270 -7z"></path><path id="p1Dcdcwolo" d="M3417 2453 c-4 -3 -7 -125 -7 -270 0 -256 1 -263 20 -263 19 0 20 7 20 250 l0 250 230 0 230 0 0 -250 c0 -244 0 -250 20 -250 20 0 20 5 18 268 l-3 267 -261 3 c-143 1 -263 -1 -267 -5z"></path><path id="p6P4jd4CM" d="M2797 1612 c-171 -171 -171 -173 -69 -275 98 -98 96 -98 265 71 164 165 166 169 84 250 -34 34 -61 52 -77 52 -13 0 -33 9 -45 20 l-21 20 -137 -138z m-37 -247 c35 -36 62 -65 59 -65 -2 0 -34 29 -69 65 -35 36 -62 65 -59 65 2 0 34 -29 69 -65z"></path></g></g><g id="lqU2qKJIMAfrGc8BlkI7m9" fill="rgb(144,164,174)" style="transform: none;"><g><path id="p8g44HYYw" d="M4215 4370 c-89 -89 -160 -153 -175 -156 -50 -11 -89 -34 -117 -70 -37 -49 -40 -127 -5 -173 21 -29 22 -38 22 -241 0 -203 1 -210 20 -210 19 0 20 7 20 225 0 174 -3 225 -13 225 -20 0 -37 72 -30 129 5 48 7 51 34 51 16 0 29 4 29 9 0 6 21 13 48 16 44 7 55 15 188 147 85 85 144 136 148 129 4 -6 24 -11 44 -11 l37 1 -44 39 c-24 22 -46 40 -50 40 -3 0 -74 -68 -156 -150z"></path><path id="p18BCGsw3s" d="M4334 4258 c-147 -148 -152 -155 -158 -203 -3 -27 -11 -51 -16 -53 -6 -2 -10 -20 -10 -39 0 -31 2 -34 16 -22 21 17 40 56 48 99 5 28 37 66 158 187 131 131 150 154 139 167 -8 9 -16 16 -20 16 -3 0 -74 -69 -157 -152z"></path><path id="pCrie6oE4" d="M1180 3680 l0 -260 260 0 260 0 0 260 0 260 -260 0 -260 0 0 -260z"></path><path id="pN8D9HeUG" d="M1920 3680 l0 -260 265 0 265 0 0 260 0 260 -265 0 -265 0 0 -260z"></path><path id="p1Fd7yKGms" d="M2670 3680 l0 -260 135 0 135 0 -39 78 c-50 100 -97 247 -113 356 l-12 86 -53 0 -53 0 0 -260z"></path><path id="prPExZM8c" d="M1180 2935 l0 -265 133 0 c90 0 137 -4 145 -12 23 -23 13 43 -11 72 -15 18 -29 57 -41 116 -10 49 -24 112 -31 140 l-12 51 56 -13 c31 -7 97 -22 146 -34 131 -31 163 -35 148 -19 -9 9 -13 48 -13 121 l0 108 -260 0 -260 0 0 -265z"></path><path id="piL7cS7mo" d="M1920 2984 c0 -191 -2 -215 -15 -204 -13 11 -15 8 -15 -17 0 -40 84 -123 124 -123 24 0 27 2 16 15 -11 13 13 15 204 15 l216 0 0 265 0 265 -265 0 -265 0 0 -216z"></path><path id="phLqzTtK5" d="M2670 2935 l0 -265 265 0 265 0 0 213 0 213 -53 52 -53 52 -212 0 -212 0 0 -265z"></path><path id="p5fRoI8xd" d="M3420 2805 l0 -135 260 0 260 0 0 55 c0 53 -1 55 -27 55 -88 1 -301 64 -425 126 l-68 34 0 -135z"></path><path id="p1AQBDfIfH" d="M1650 2465 c11 -13 -15 -15 -229 -15 l-241 0 0 -265 0 -265 260 0 260 0 0 246 c0 218 2 245 15 234 13 -11 15 -8 15 17 0 37 -27 63 -65 63 -23 0 -26 -2 -15 -15z"></path><path id="pRf9N9h5G" d="M2210 2445 c0 -24 19 -49 102 -132 84 -85 108 -103 132 -103 23 0 27 3 18 12 -8 8 -12 49 -12 120 l0 108 -108 0 c-71 0 -112 4 -120 12 -9 9 -12 5 -12 -17z"></path><path id="pT5qVy8Ky" d="M2670 2234 c0 -191 -2 -215 -15 -204 -13 11 -15 8 -15 -17 0 -40 84 -123 124 -123 24 0 27 2 16 15 -11 13 13 15 204 15 l216 0 0 265 0 265 -265 0 -265 0 0 -216z"></path><path id="pVCbohYaN" d="M3420 2185 l0 -265 260 0 260 0 0 265 0 265 -260 0 -260 0 0 -265z"></path><path id="p5MyUOETS" d="M1908 2208 c8 -8 12 -56 12 -150 l0 -138 138 0 c94 0 142 -4 150 -12 9 -9 12 -5 12 18 0 24 -22 51 -133 162 -110 109 -137 132 -162 132 -22 0 -26 -3 -17 -12z"></path></g></g><g id="l7Q1f7FKAbmHdZf14fwjmhr" fill="rgb(229,115,115)" style="transform: none;"><g><path id="pyVgHzYmw" d="M3840 4810 c-91 -24 -226 -89 -270 -130 -18 -16 -35 -30 -39 -30 -14 0 -71 -66 -71 -83 0 -9 -7 -17 -16 -17 -9 0 -18 -9 -21 -20 -3 -11 -9 -20 -14 -20 -5 0 -9 -7 -9 -15 0 -8 -4 -15 -9 -15 -14 0 -70 -124 -93 -207 -28 -105 -30 -324 -4 -428 20 -77 91 -235 106 -235 6 0 10 -7 10 -15 0 -9 7 -18 15 -21 8 -4 15 -11 15 -18 0 -15 102 -116 117 -116 6 0 13 -7 17 -15 3 -8 12 -15 21 -15 8 0 15 -4 15 -8 0 -14 93 -61 172 -88 146 -49 348 -55 501 -13 75 21 205 81 222 103 6 7 18 15 28 19 9 3 17 13 17 22 0 8 8 15 18 15 16 0 82 58 82 72 0 3 14 20 30 38 69 74 150 291 150 402 0 60 -26 69 -35 11 -14 -96 -39 -185 -66 -243 -132 -281 -407 -445 -714 -427 -123 7 -195 26 -305 80 -70 34 -102 58 -181 136 -78 79 -102 111 -137 181 -53 110 -72 182 -79 305 -8 138 13 240 77 370 113 233 307 367 593 410 23 4 37 11 37 20 0 21 -87 19 -180 -5z"></path><path id="pV8sdeHpN" d="M4090 4817 c0 -11 12 -18 38 -22 158 -25 276 -71 378 -149 59 -44 59 -44 62 -20 4 28 -13 54 -34 54 -8 0 -14 5 -14 10 0 6 -7 10 -15 10 -8 0 -15 4 -15 9 0 14 -109 67 -185 90 -38 12 -102 24 -142 28 -63 5 -73 4 -73 -10z"></path><path id="pnY22yF5Y" d="M4623 4538 c77 -95 145 -242 161 -349 14 -87 18 -99 33 -99 14 0 15 11 10 73 -4 40 -16 104 -28 142 -23 76 -76 185 -90 185 -5 0 -9 7 -9 15 0 8 -3 15 -8 15 -4 0 -12 10 -17 23 -7 15 -20 23 -44 25 l-35 4 27 -34z"></path><path id="plPPj5hbk" d="M3066 4457 c-30 -64 -62 -185 -72 -267 -6 -55 -5 -60 12 -60 16 0 21 12 32 76 6 41 25 115 42 163 46 135 37 194 -14 88z"></path><path id="pTDupkwO2" d="M2986 4075 c-8 -33 3 -75 20 -75 10 0 14 14 14 50 0 55 -23 71 -34 25z"></path><path id="pojmWBKhS" d="M2994 3915 c15 -144 79 -312 173 -453 167 -251 468 -439 748 -468 61 -6 65 -5 65 13 0 17 -9 21 -61 27 -87 9 -260 69 -351 121 -43 25 -82 45 -87 45 -5 0 -11 7 -15 15 -3 8 -11 15 -18 15 -7 0 -19 9 -26 20 -7 11 -21 20 -32 20 -11 0 -20 6 -20 13 0 16 -72 87 -88 87 -7 0 -12 9 -12 20 0 11 -9 25 -20 32 -11 7 -20 19 -20 26 0 7 -7 15 -15 18 -8 4 -15 10 -15 15 0 5 -20 44 -45 87 -52 91 -112 264 -121 351 -6 52 -10 61 -27 61 -18 0 -19 -4 -13 -65z"></path><path id="pHvwJm4x3" d="M4362 3078 c-46 -16 -117 -34 -158 -41 -62 -10 -74 -15 -74 -31 0 -17 5 -18 60 -12 82 10 203 42 267 72 106 51 39 59 -95 12z"></path><path id="p16fhMcxbz" d="M4010 3006 c0 -17 37 -27 68 -19 41 10 26 33 -23 33 -32 0 -45 -4 -45 -14z"></path><path id="p1HCpkrKnw" d="M2390 1725 c11 -13 -15 -15 -229 -15 -234 0 -241 -1 -241 -20 0 -19 7 -20 250 -20 l250 0 0 -230 0 -230 -250 0 c-244 0 -250 0 -250 -20 0 -20 5 -20 268 -18 l267 3 3 239 c2 209 4 237 17 226 13 -11 15 -8 15 19 0 26 -4 31 -25 31 -20 0 -25 5 -25 25 0 21 -5 25 -31 25 -27 0 -30 -2 -19 -15z"></path><path id="ptFGaMOJ9" d="M1170 1440 l0 -270 270 0 270 0 0 270 0 270 -270 0 -270 0 0 -270z m500 0 l0 -230 -230 0 -230 0 0 230 0 230 230 0 230 0 0 -230z"></path><path id="p170TWoSdu" d="M2980 1703 c0 -4 27 -35 60 -68 l60 -60 -139 -139 c-121 -120 -142 -138 -155 -127 -29 25 -19 -39 11 -71 l27 -28 -73 0 -72 0 1 98 c1 53 -1 105 -5 115 -4 9 -2 23 4 31 14 17 4 26 -32 26 -23 0 -27 -3 -19 -13 7 -8 13 -71 14 -153 l3 -139 268 -3 c262 -2 267 -2 267 18 0 18 -6 20 -67 20 l-67 0 68 69 69 69 0 97 0 97 -64 64 -63 64 62 0 c55 0 62 2 62 20 0 19 -7 20 -110 20 -60 0 -110 -3 -110 -7z"></path><path id="p2V3s6CGu" d="M3410 1440 l0 -270 270 0 270 0 0 270 0 270 -270 0 -270 0 0 -270z m500 0 l0 -230 -230 0 -230 0 0 230 0 230 230 0 230 0 0 -230z"></path></g></g><g id="l4JYsD5XLiA5KQnvYsdhxFo" fill="rgb(255,193,7)" style="transform: none;"><g><path id="p64Numxlv" d="M1396 3001 l-49 -50 29 -122 c19 -82 35 -125 47 -133 14 -9 37 9 154 127 116 116 136 140 127 154 -6 10 -46 26 -100 40 -161 40 -152 41 -208 -16z"></path></g></g><g id="l1nQJA3KHvTIFfSIytvzenp" fill="rgb(255,152,0)" style="transform: none;"><g><path id="p1ARrkjh9Q" d="M1545 2853 l-140 -143 502 -502 c457 -456 501 -503 478 -508 -26 -5 -26 -5 19 -50 l46 -44 0 29 c0 28 6 23 110 -80 61 -60 110 -118 110 -127 0 -10 7 -18 17 -18 13 0 14 3 5 12 -10 10 18 43 130 155 l143 143 -640 638 -640 637 -140 -142z"></path></g></g><g id="l7LR2rkUxO563arQGRqEV1l" fill="rgb(244,67,54)" style="transform: none;"><g><path id="pIhbSS5os" d="M3958 5108 c-163 -12 -348 -78 -495 -175 -83 -54 -197 -165 -265 -257 -427 -573 -161 -1404 522 -1630 395 -131 814 -23 1105 285 431 456 369 1188 -133 1566 -216 163 -459 233 -734 211z m327 -341 c116 -38 199 -90 295 -187 148 -148 208 -285 217 -495 5 -102 2 -134 -16 -205 -65 -260 -241 -453 -485 -535 -420 -141 -862 100 -971 530 -26 99 -24 266 4 368 56 212 194 383 386 478 129 63 207 80 360 75 106 -3 145 -8 210 -29z"></path><path id="p030ifZ8y" d="M1180 1440 l0 -260 260 0 260 0 0 260 0 260 -260 0 -260 0 0 -260z"></path><path id="pyC4xvcOq" d="M1920 1440 l0 -260 265 0 265 0 0 243 c0 224 -2 245 -18 260 -16 15 -50 17 -265 17 l-247 0 0 -260z"></path><path id="pSKxc088Y" d="M3090 1595 c58 -58 106 -105 107 -105 2 0 3 47 3 105 l0 105 -107 0 -108 0 105 -105z"></path><path id="pQ26ER61t" d="M3420 1440 l0 -260 260 0 260 0 0 260 0 260 -260 0 -260 0 0 -260z"></path><path id="pBQxav63j" d="M2670 1312 l0 -132 265 0 265 0 0 112 0 112 -109 -107 c-86 -85 -114 -107 -136 -107 -23 0 -53 25 -157 127 l-128 127 0 -132z"></path></g></g><g id="l2oCkpKSP6m7QMFyh9NVxEw" fill="rgb(55,71,79)" style="transform: none;"><g><path id="pNNQFBilf" d="M4400 4462 c0 -39 37 -72 80 -72 l34 0 -30 31 c-16 17 -41 40 -56 51 l-28 19 0 -29z"></path><path id="pDjqWAVr6" d="M3982 4193 c-71 -35 -105 -117 -77 -188 8 -24 25 -51 35 -60 20 -18 20 -17 20 18 0 21 -4 37 -9 37 -5 0 -11 14 -15 31 -9 48 39 122 88 135 17 4 26 13 26 25 0 23 -24 24 -68 2z"></path><path id="p14g2jqNTj" d="M4165 4021 c-3 -16 -13 -32 -21 -35 -20 -8 -19 -76 1 -76 8 0 15 5 15 11 0 6 9 24 20 39 11 16 23 42 26 59 6 27 4 31 -14 31 -14 0 -22 -9 -27 -29z"></path><path id="pjyxPAWpI" d="M1313 3074 c3 -10 13 -46 22 -79 9 -33 18 -66 21 -74 3 -10 25 5 69 49 36 35 61 67 57 71 -4 3 -38 14 -77 24 -38 10 -76 20 -84 23 -9 4 -12 -1 -8 -14z"></path></g></g><g id="l6LIrj6M2VdFBKqPdqQo0vF" fill="rgb(0,0,0)" style="transform: none;"><g><path id="puzgBjU1X" d="M4220 4365 c-131 -132 -158 -154 -191 -159 -45 -7 -101 -53 -119 -96 -17 -40 -8 -111 19 -148 20 -28 21 -42 21 -236 l0 -206 105 0 105 0 0 210 c0 196 1 213 20 238 11 15 23 46 26 67 6 35 25 59 160 195 l153 155 -73 67 -73 66 -153 -153z"></path></g></g></svg>
