<svg class="img-fluid" id="outputsvg" xmlns="http://www.w3.org/2000/svg" style="transform: none; transform-origin: 50% 50% 0px; cursor: move; transition: none 0s ease 0s;" width="512" height="512" viewBox="0 0 5120 5120"><g id="l3nrzOMeFK56YrmVw10AmhS" fill="rgb(55,71,79)" style="transform: none;"><g><path id="p6OgMjIST" d="M4418 4692 c-85 -146 -92 -132 62 -132 122 0 132 1 126 18 -11 26 -120 212 -126 212 -3 0 -31 -44 -62 -98z"></path></g></g><g id="l62zelcVoxy54KNFl14fnKn" fill="rgb(69,90,100)" style="transform: none;"><g><path id="pXbnyxEMW" d="M1290 2240 c0 -5 -4 -10 -8 -10 -5 0 -175 -92 -378 -205 -269 -149 -370 -201 -372 -190 -6 25 -32 17 -122 -34 -65 -37 -85 -54 -85 -70 0 -17 175 -127 958 -606 l958 -585 952 581 c523 320 953 583 954 584 4 2 -928 520 -944 523 -7 2 -13 8 -13 13 0 5 -4 9 -10 9 -13 0 -13 -47 -1 -55 5 -3 12 3 14 12 3 10 5 0 5 -22 0 -28 -2 -34 -7 -21 -12 32 -20 5 -31 -106 -21 -205 -72 -404 -118 -453 -66 -72 -210 -129 -407 -162 -167 -28 -592 -25 -765 5 -202 34 -350 89 -425 156 -59 53 -106 237 -127 494 -7 83 -16 152 -20 152 -4 0 -8 -4 -8 -10z"></path></g></g><g id="l66USUX2Ir9FIZwvXBfKYeX" fill="rgb(255,61,0)" style="transform: none;"><g><path id="p1EHbSXx6q" d="M1320 4470 c-256 -31 -460 -262 -460 -520 1 -245 168 -460 401 -515 55 -13 256 -15 1484 -16 781 -1 1412 -3 1402 -6 -24 -6 -11 -23 19 -23 l24 0 0 135 0 135 -1432 2 -1433 3 -45 24 c-148 77 -214 236 -152 363 47 96 129 157 237 177 40 8 487 11 1444 11 l1386 0 48 81 c26 44 47 91 47 105 0 25 -15 33 -23 12 -3 -7 -6 -1 -6 15 l-1 27 -1437 -1 c-791 -1 -1467 -5 -1503 -9z"></path></g></g><g id="l3DmwTroVeGNvlxzTrfvAWL" fill="rgb(76,175,80)" style="transform: none;"><g><path id="pg1U48SvY" d="M4170 4280 c0 -5 -9 -10 -20 -10 -20 0 -20 -7 -20 -320 0 -278 2 -320 15 -320 12 0 15 -19 15 -110 0 -91 -3 -110 -15 -110 -13 0 -15 -66 -15 -530 0 -464 2 -530 15 -530 13 0 15 -80 15 -660 l0 -660 320 0 320 0 0 1615 0 1615 -272 1 c-150 1 -265 3 -255 6 9 2 15 9 12 14 -8 12 -115 12 -115 -1z"></path><path id="pBAYq9sMQ" d="M423 1813 c-7 -2 -13 -13 -13 -24 0 -14 -7 -19 -29 -19 -45 0 -61 -10 -61 -36 0 -13 3 -24 6 -24 13 0 174 94 174 102 0 9 -57 10 -77 1z"></path></g></g><g id="l4qPlR0ch2tlFjT3NMp4pZg" fill="rgb(98,128,140)" style="transform: none;"><g><path id="pdEVDGibN" d="M1272 2363 c5 -6 11 -85 13 -175 4 -186 16 -293 50 -428 42 -167 56 -187 180 -248 84 -42 179 -69 325 -95 174 -30 655 -32 825 -4 197 33 341 90 407 162 40 42 92 227 113 401 4 28 8 122 10 209 2 118 6 159 16 166 7 4 11 10 9 13 -3 2 -445 6 -982 8 -753 2 -974 0 -966 -9z"></path></g></g><g id="l2FbsLzSpvRT9hVFtwjXos3" fill="rgb(126,87,194)" style="transform: none;"><g><path id="pCpf1OGGC" d="M1273 3395 c-188 -41 -349 -198 -398 -390 -60 -233 58 -485 277 -595 44 -22 88 -40 97 -40 9 0 23 -6 29 -12 18 -18 691 -22 1920 -13 l962 7 0 119 0 119 -1412 2 -1413 3 -46 21 c-104 49 -189 167 -189 264 0 97 85 215 189 264 l46 21 1413 3 1412 2 0 120 0 120 -1412 -1 c-1148 0 -1425 -3 -1475 -14z"></path></g></g><g id="luQ1PiDFtKehBk3pQW606r" fill="rgb(255,193,7)" style="transform: none;"><g><path id="p9p4M1MXL" d="M4307 4503 c-31 -49 -75 -121 -99 -160 -27 -46 -49 -73 -60 -73 -11 0 -18 -8 -18 -20 0 -11 7 -20 15 -20 8 0 15 7 15 15 0 18 -25 17 332 24 l296 6 -94 158 -95 157 -119 0 -118 0 -55 -87z"></path><path id="pVjTHCYIm" d="M348 3868 c-88 -141 -176 -305 -209 -393 -31 -79 -31 -172 -2 -237 28 -61 92 -130 143 -153 l40 -18 0 -679 c0 -374 3 -678 8 -676 4 2 51 27 105 56 l97 53 0 624 0 623 26 6 c15 4 55 35 90 70 67 67 94 128 94 212 0 83 -59 218 -191 439 -135 226 -111 217 -201 73z"></path></g></g><g id="l46FT99AbHoXFq5pomLUpjZ" fill="rgb(229,115,115)" style="transform: none;"><g><path id="pXaABQVz" d="M1358 4263 c-33 -8 -20 -33 17 -33 28 0 35 4 35 20 0 20 -14 23 -52 13z"></path><path id="pqmfurUgP" d="M1178 4189 c-36 -27 -35 -39 2 -39 27 0 30 3 30 30 0 35 2 35 -32 9z"></path><path id="pOC1w3y7M" d="M1295 3186 c-90 -28 -156 -86 -197 -171 -34 -72 -36 -105 -8 -105 16 0 21 9 26 50 4 32 11 50 20 50 8 0 14 7 14 15 0 8 5 15 10 15 6 0 10 14 10 30 0 26 3 30 29 30 16 0 31 4 33 8 5 12 103 52 127 52 14 0 21 6 21 20 0 24 -24 25 -85 6z"></path><path id="pHrsCbysU" d="M1070 2828 c0 -13 13 -50 28 -83 46 -96 136 -164 240 -181 38 -6 42 -5 42 15 0 15 -6 21 -21 21 -24 0 -122 40 -127 52 -2 4 -17 8 -33 8 -26 0 -29 4 -29 30 0 17 -4 30 -10 30 -5 0 -10 7 -10 15 0 8 -6 15 -14 15 -9 0 -16 18 -20 50 -5 41 -10 50 -26 50 -14 0 -20 -7 -20 -22z"></path><path id="pAZhPkBYc" d="M4163 665 c8 -88 23 -129 63 -168 58 -58 75 -62 254 -62 179 0 196 4 254 62 40 39 55 80 63 168 l6 75 -323 0 -323 0 6 -75z"></path></g></g><g id="l5CqF5mVEqgdheUtmR1Rvdq" fill="rgb(176,190,197)" style="transform: none;"><g><path id="ps44PvzdM" d="M1139 3082 c-29 -34 -31 -52 -4 -52 22 0 25 4 25 35 0 40 -1 41 -21 17z"></path><path id="pq6txi0O9" d="M1085 2980 c-4 -6 -8 -22 -11 -35 -3 -20 0 -25 16 -25 16 0 20 7 20 35 0 34 -12 46 -25 25z"></path><path id="pzgpF2yPG" d="M1074 2815 c10 -55 36 -62 36 -10 0 28 -4 35 -20 35 -16 0 -19 -5 -16 -25z"></path><path id="pGu2qmjWB" d="M1117 2713 c4 -10 15 -27 25 -37 18 -19 18 -19 18 17 0 33 -3 37 -25 37 -19 0 -23 -4 -18 -17z"></path><path id="pTZYimjEM" d="M4160 905 l0 -155 320 0 320 0 0 155 0 155 -320 0 -320 0 0 -155z"></path></g></g><g id="l2DlfMsRezsidfCF4JEfiPS" fill="rgb(255,224,178)" style="transform: none;"><g><path id="pGaPltz1e" d="M1332 4259 c-68 -12 -118 -38 -169 -89 -68 -67 -88 -119 -88 -225 0 -78 4 -97 27 -140 32 -60 87 -114 148 -146 l45 -24 1433 -3 1432 -2 0 320 0 320 -1387 -1 c-764 -1 -1412 -5 -1441 -10z"></path><path id="pphEm75ET" d="M1309 3186 c-153 -41 -249 -176 -236 -332 9 -115 70 -204 175 -256 l67 -33 1422 -3 1423 -2 0 320 0 320 -1402 -1 c-1079 0 -1414 -3 -1449 -13z"></path></g></g></svg>
