<svg class="img-fluid" id="outputsvg" xmlns="http://www.w3.org/2000/svg" style="transform: none; transform-origin: 50% 50% 0px; cursor: move; transition: none 0s ease 0s;" width="512" height="512" viewBox="0 0 5120 5120"><g id="l2IiATyr5DsYpGi2jeWVQ5I" fill="rgb(207,216,220)" style="transform: none;"><g style="transform: none;"><path id="pU79XQJpF" d="M903 4469 c-135 -17 -256 -107 -320 -237 l-38 -76 -3 -1238 -2 -1238 2020 0 2020 0 -2 1238 -3 1238 -38 76 c-66 134 -184 219 -329 238 -89 11 -3216 11 -3305 -1z m2797 -1059 l0 -290 -287 2 -288 3 -3 288 -2 287 290 0 290 0 0 -290z m-1715 -10 l0 -285 -285 0 -285 0 -3 288 -2 287 287 -2 288 -3 0 -285z m853 3 l-3 -288 -285 0 -285 0 -3 288 -2 287 290 0 290 0 -2 -287z m-853 -853 l0 -285 -287 -3 -288 -2 0 290 0 290 288 -2 287 -3 0 -285z m850 0 l0 -285 -285 0 -285 0 -3 275 c-1 151 0 280 3 288 3 10 65 12 287 10 l283 -3 0 -285z m855 0 l0 -290 -287 2 -288 3 -3 275 c-1 151 0 280 3 287 3 10 69 13 290 13 l285 0 0 -290z"></path></g></g><g id="l41v1ihfClaS2t4nZf5JWo2" fill="rgb(244,67,54)" style="transform: none;"><g style="transform: none;"><path id="ptj4MfmEY" d="M3092 3413 l3 -318 318 -3 317 -2 0 320 0 320 -320 0 -320 0 2 -317z"></path><path id="p1BdjlSXXY" d="M542 1337 l3 -373 38 -76 c66 -134 184 -219 329 -238 40 -5 164 -10 276 -10 173 0 202 -2 202 -15 0 -8 7 -15 15 -15 13 0 15 20 15 124 0 121 -1 125 -25 144 -14 11 -25 25 -25 31 0 6 -3 11 -8 11 -9 0 -28 43 -43 101 -11 42 -10 54 10 115 19 58 31 78 81 126 63 59 125 88 190 88 49 0 130 -29 130 -46 0 -8 8 -14 18 -14 11 0 24 -11 30 -25 6 -14 18 -25 26 -25 21 0 53 -58 60 -112 4 -27 11 -48 17 -48 12 0 12 -37 -1 -45 -5 -3 -10 -19 -10 -34 0 -28 -44 -105 -73 -130 -24 -19 -26 -261 -2 -261 8 0 15 7 15 15 0 13 90 15 750 15 660 0 750 -2 750 -15 0 -8 7 -15 15 -15 13 0 15 20 15 124 0 121 -1 125 -25 144 -14 11 -25 25 -25 31 0 6 -3 11 -8 11 -9 0 -28 43 -43 101 -11 42 -10 54 10 115 19 58 31 78 81 126 63 59 125 88 190 88 49 0 130 -29 130 -46 0 -8 8 -14 18 -14 11 0 24 -11 30 -25 6 -14 18 -25 26 -25 21 0 53 -58 60 -113 4 -26 11 -47 17 -47 12 0 12 -37 -1 -45 -5 -3 -10 -19 -10 -34 0 -28 -44 -105 -73 -130 -24 -19 -26 -261 -2 -261 8 0 15 7 15 15 0 13 29 15 203 15 111 0 235 5 275 10 145 19 263 104 329 238 l38 76 3 373 3 373 -2021 0 -2021 0 3 -373z"></path></g></g><g id="l3tu76pIL3uC4jjL0SGnLR5" fill="rgb(176,190,197)" style="transform: none;"><g style="transform: none;"><path id="pFXeXu5Ug" d="M1382 3403 l3 -318 315 0 315 0 0 315 0 315 -318 3 -317 2 2 -317z"></path><path id="ps2XjjLrX" d="M2232 3403 l3 -318 315 0 315 0 3 318 2 317 -320 0 -320 0 2 -317z"></path><path id="pP1b9FtUY" d="M1380 2550 l0 -320 318 2 317 3 0 315 0 315 -317 3 -318 2 0 -320z"></path><path id="p3jfKbSLh" d="M2235 2858 c-3 -7 -4 -150 -3 -318 l3 -305 315 0 315 0 0 315 0 315 -313 3 c-246 2 -314 0 -317 -10z"></path><path id="pD5QZhRHd" d="M3085 2857 c-3 -7 -4 -149 -3 -317 l3 -305 318 -3 317 -2 0 320 0 320 -315 0 c-245 0 -317 -3 -320 -13z"></path><path id="pfTV95ZC9" d="M1485 1291 c-49 -23 -89 -64 -109 -113 -23 -53 -23 -320 -1 -338 12 -10 15 -42 15 -169 0 -86 5 -174 11 -195 6 -21 30 -59 53 -83 84 -89 208 -89 292 0 23 24 47 62 53 83 6 21 11 109 11 195 0 127 3 159 15 169 24 20 21 291 -4 345 -23 49 -64 89 -113 109 -53 22 -172 21 -223 -3z"></path><path id="pnzD1hUfP" d="M3405 1291 c-49 -23 -89 -64 -109 -113 -23 -53 -23 -320 -1 -338 12 -10 15 -42 15 -169 0 -86 5 -174 11 -195 6 -21 30 -59 53 -83 84 -89 208 -89 292 0 23 24 47 62 53 83 6 21 11 109 11 195 0 127 3 159 15 169 24 20 21 291 -4 345 -23 49 -64 89 -113 109 -53 22 -172 21 -223 -3z"></path></g></g><g id="l2MFwcxsWYnG7gIWHj9E350" fill="rgb(183,28,28)" style="transform: none;"><g style="transform: none;"><path id="pQ4oRnImU" d="M1550 1379 c-71 -11 -114 -33 -173 -91 -50 -49 -63 -72 -94 -168 -9 -27 -8 -120 1 -123 5 -2 9 -17 10 -35 0 -17 7 -34 15 -37 7 -3 10 -12 7 -20 -3 -9 1 -15 10 -15 10 0 14 -6 10 -15 -3 -8 0 -15 6 -15 6 0 20 -7 30 -17 17 -16 18 -11 18 126 0 155 9 192 58 245 103 110 288 75 346 -66 12 -28 16 -74 16 -179 l0 -142 25 23 c30 28 79 125 71 139 -4 5 -2 12 4 16 12 8 13 105 1 105 -5 0 -7 9 -4 20 3 11 0 20 -6 20 -5 0 -8 7 -5 15 8 19 -43 105 -62 105 -8 0 -20 11 -26 25 -6 14 -19 25 -30 25 -10 0 -17 5 -16 12 4 14 -72 43 -127 50 -22 2 -60 1 -85 -3z"></path><path id="p1FiQTH5i6" d="M3470 1379 c-71 -11 -114 -33 -173 -91 -50 -49 -63 -72 -94 -168 -9 -27 -8 -120 1 -123 5 -2 9 -17 10 -35 0 -17 7 -34 15 -37 7 -3 10 -12 7 -20 -3 -9 1 -15 10 -15 10 0 14 -6 10 -15 -3 -8 0 -15 6 -15 6 0 20 -7 30 -17 17 -16 18 -11 18 126 0 155 9 192 58 245 103 110 288 75 346 -66 12 -28 16 -74 16 -179 l0 -142 25 23 c30 28 79 125 71 139 -4 5 -2 12 4 16 12 8 13 105 1 105 -5 0 -7 9 -4 20 3 11 0 20 -6 20 -5 0 -8 7 -5 15 8 19 -43 105 -62 105 -8 0 -20 11 -26 25 -6 14 -19 25 -30 25 -10 0 -17 5 -15 12 3 14 -73 43 -128 50 -22 2 -60 1 -85 -3z"></path></g></g></svg>
