<svg class="img-fluid safari" id="outputsvg" xmlns="http://www.w3.org/2000/svg" width="512" height="512" viewBox="0 0 5120 5120" style="transform: none; transform-origin: 50% 50%; cursor: move; max-height: none;"><g id="l3XibLSJ85ACCpr8Jx1cJKA" fill="rgb(207,216,220)" style="transform: none;"><g><path id="pERMWte9T" d="M1005 4469 c-181 -26 -328 -178 -355 -364 -13 -95 -13 -2995 0 -3090 28 -197 174 -339 375 -365 54 -7 573 -10 1590 -8 1416 3 1513 4 1562 21 83 28 171 94 220 165 82 121 77 50 81 1100 l3 932 -28 0 c-16 0 -73 -12 -128 -26 -79 -20 -126 -26 -225 -27 l-125 -2 -3 107 c-3 118 2 111 -82 123 -114 18 -283 86 -396 161 -62 41 -111 46 -119 12 -3 -13 -6 -63 -8 -111 l-2 -89 -67 51 c-47 35 -76 51 -98 51 l-30 0 0 -205 0 -205 -235 0 -235 0 0 235 0 235 205 0 205 0 0 31 c0 21 -14 49 -43 87 -71 93 -76 86 61 79 l122 -6 0 30 c0 19 -13 47 -36 77 -20 26 -60 96 -90 156 -48 99 -67 160 -100 323 -4 21 -10 22 -112 25 l-107 3 2 125 c1 102 6 144 28 225 15 55 30 112 33 128 l4 27 -903 -1 c-497 -1 -931 -5 -964 -10z m653 -571 c17 -17 17 -439 0 -456 -17 -17 -439 -17 -456 0 -17 17 -17 439 0 456 17 17 439 17 456 0z m746 6 c14 -5 16 -35 16 -234 0 -199 -2 -229 -16 -234 -9 -3 -114 -6 -235 -6 l-219 0 0 240 0 240 219 0 c121 0 226 -3 235 -6z m348 -104 c10 -58 23 -106 28 -108 6 -2 10 -15 10 -29 0 -34 21 -103 32 -103 4 0 8 -11 8 -25 0 -13 8 -32 19 -42 10 -10 24 -28 30 -40 l12 -23 -96 0 -95 0 0 241 c0 220 1 240 17 237 13 -2 21 -27 35 -108z m-1088 -646 c3 -9 6 -114 6 -235 l0 -219 -240 0 -240 0 0 223 c0 160 3 226 12 235 9 9 75 12 234 12 193 0 223 -2 228 -16z m756 -219 l0 -235 -235 0 -235 0 0 235 0 235 235 0 235 0 0 -235z m1046 -70 c15 -14 39 -25 55 -25 15 0 32 -6 36 -13 10 -17 67 -37 104 -37 15 0 29 -4 31 -10 2 -5 50 -18 108 -28 81 -14 106 -22 108 -35 3 -16 -17 -17 -237 -17 l-241 0 0 95 c0 52 2 95 4 95 3 0 17 -11 32 -25z m-1802 -461 c3 -9 6 -114 6 -235 l0 -219 -240 0 -240 0 0 223 c0 160 3 226 12 235 9 9 75 12 234 12 193 0 223 -2 228 -16z m756 -219 l0 -235 -235 0 -235 0 0 235 0 235 235 0 235 0 0 -235z m750 0 l0 -235 -235 0 -235 0 0 235 0 235 235 0 235 0 0 -235z m734 219 c3 -9 6 -114 6 -235 l0 -219 -240 0 -240 0 0 223 c0 160 3 226 12 235 9 9 75 12 234 12 193 0 223 -2 228 -16z m-2229 -964 l0 -235 -235 0 -235 0 -3 225 c-1 123 0 230 3 237 3 11 54 13 237 11 l233 -3 0 -235z m745 0 l0 -240 -235 0 -235 0 0 240 0 240 235 0 235 0 0 -240z m750 0 l0 -240 -235 0 -235 0 0 240 0 240 235 0 235 0 0 -240z m745 0 l0 -235 -235 0 -235 0 -3 225 c-1 123 0 230 3 237 3 11 54 13 237 11 l233 -3 0 -235z"></path></g></g><g id="l4DJyovsQChUb78Qj52F9xv" fill="rgb(244,67,54)" style="transform: none;"><g><path id="p90Eal5Gv" d="M3958 5108 c-163 -12 -348 -78 -495 -175 -127 -84 -268 -240 -348 -385 -29 -54 -42 -68 -60 -68 -20 0 -27 -10 -45 -65 -34 -102 -49 -209 -50 -347 0 -107 2 -128 15 -128 8 0 17 -10 19 -22 33 -165 52 -225 100 -324 30 -60 70 -130 89 -155 l35 -45 -31 4 -31 5 32 -40 c17 -23 71 -78 119 -123 81 -77 87 -81 97 -61 11 20 12 19 56 -10 108 -73 287 -146 400 -164 67 -10 80 -15 80 -31 0 -11 23 -14 128 -14 138 1 245 16 347 50 55 18 65 25 65 45 0 18 14 31 68 60 99 55 190 125 273 212 487 511 344 1344 -286 1670 -177 91 -365 128 -577 111z m257 -363 c141 -36 295 -136 387 -249 230 -286 215 -658 -38 -926 -176 -187 -431 -268 -660 -210 -276 70 -474 269 -545 550 -53 211 14 445 180 622 102 110 241 191 371 217 30 6 64 13 75 15 35 8 168 -3 230 -19z"></path><path id="pxUp1P7W3" d="M1175 1697 c-3 -7 -4 -127 -3 -267 l3 -255 265 0 265 0 0 265 0 265 -263 3 c-206 2 -264 0 -267 -11z"></path><path id="p6xorB3OK" d="M1920 1440 l0 -270 265 0 265 0 0 270 0 270 -265 0 -265 0 0 -270z"></path><path id="pRQDysZdx" d="M2670 1440 l0 -270 265 0 265 0 0 270 0 270 -265 0 -265 0 0 -270z"></path><path id="pMD5tdVA9" d="M3415 1697 c-3 -7 -4 -127 -3 -267 l3 -255 265 0 265 0 0 265 0 265 -263 3 c-206 2 -264 0 -267 -11z"></path></g></g><g id="l21IemGrHbGrsI3gKSU4Skh" fill="rgb(144,164,174)" style="transform: none;"><g><path id="p12Ip3CHj7" d="M2770 3960 c0 -13 28 -25 38 -16 3 4 0 11 -8 16 -20 13 -30 12 -30 0z"></path><path id="pBuAJVdzu" d="M1172 3928 c-17 -17 -17 -499 0 -516 17 -17 499 -17 516 0 17 17 17 499 0 516 -17 17 -499 17 -516 0z"></path><path id="pKQwEGUIE" d="M1920 3670 l0 -270 249 0 c137 0 256 3 265 6 14 5 16 38 16 264 0 226 -2 259 -16 264 -9 3 -128 6 -265 6 l-249 0 0 -270z"></path><path id="phvfgnvl3" d="M2670 3670 l0 -270 123 0 c67 0 129 5 137 10 11 7 11 10 2 10 -7 0 -10 4 -7 10 7 12 -32 90 -46 90 -6 0 -7 5 -4 10 3 6 2 10 -3 10 -6 0 -8 9 -5 20 3 12 -1 22 -10 26 -9 3 -13 12 -10 20 3 8 0 14 -6 14 -6 0 -8 7 -5 15 4 8 2 15 -2 15 -5 0 -10 14 -10 32 -1 18 -6 34 -12 36 -5 1 -8 12 -5 22 3 11 1 20 -4 20 -6 0 -8 11 -5 25 2 14 0 25 -5 25 -5 0 -8 14 -5 30 3 18 0 30 -7 30 -7 0 -9 9 -5 26 8 33 -7 44 -63 44 l-43 0 0 -270z"></path><path id="pCdiatJ63" d="M3070 3215 c11 -13 -12 -15 -194 -15 l-206 0 0 -265 0 -265 265 0 265 0 0 206 c0 182 2 205 15 194 13 -11 15 -7 15 23 0 30 -9 45 -50 87 -42 41 -57 50 -87 50 -30 0 -34 -2 -23 -15z"></path><path id="pM3JP3xmQ" d="M1172 3188 c-9 -9 -12 -82 -12 -265 l0 -253 270 0 270 0 0 249 c0 137 -3 256 -6 265 -5 14 -38 16 -258 16 -183 0 -255 -3 -264 -12z"></path><path id="pv89AbYLo" d="M1920 2935 l0 -265 265 0 265 0 0 265 0 265 -265 0 -265 0 0 -265z"></path><path id="pPVE5Rxjl" d="M3406 2922 c-4 -3 -6 -61 -6 -129 l0 -123 270 0 270 0 0 39 c0 60 -7 71 -41 64 -19 -4 -29 -1 -29 7 0 8 -10 9 -30 5 -19 -4 -30 -3 -30 4 0 7 -10 9 -25 5 -15 -4 -25 -2 -25 5 0 6 -7 8 -16 4 -9 -3 -19 -1 -23 6 -4 7 -19 12 -32 13 -38 1 -93 20 -102 34 -4 8 -21 14 -37 14 -17 0 -38 9 -49 21 -19 20 -85 42 -95 31z"></path><path id="p5LODAOTh" d="M3940 2796 c0 -15 18 -31 26 -23 7 7 -7 37 -17 37 -5 0 -9 -6 -9 -14z"></path><path id="p17Eh1lOwd" d="M1172 2438 c-9 -9 -12 -82 -12 -265 l0 -253 270 0 270 0 0 249 c0 137 -3 256 -6 265 -5 14 -38 16 -258 16 -183 0 -255 -3 -264 -12z"></path><path id="pDv90xSgU" d="M1920 2185 l0 -265 265 0 265 0 0 265 0 265 -265 0 -265 0 0 -265z"></path><path id="pYnZkp4z9" d="M2670 2185 l0 -265 265 0 265 0 0 265 0 265 -265 0 -265 0 0 -265z"></path><path id="pF96OsnEZ" d="M3412 2438 c-9 -9 -12 -82 -12 -265 l0 -253 270 0 270 0 0 249 c0 137 -3 256 -6 265 -5 14 -38 16 -258 16 -183 0 -255 -3 -264 -12z"></path></g></g><g id="l5bOYYnFhDHeSLxDYAlCSuW" fill="rgb(237,238,239)" style="transform: none;"><g><path id="p80GDb8m0" d="M3955 4794 c-11 -2 -45 -9 -75 -15 -130 -26 -269 -107 -371 -217 -79 -85 -123 -157 -162 -269 -42 -122 -50 -289 -18 -414 57 -224 189 -392 386 -490 300 -148 654 -87 879 151 139 148 200 301 200 510 1 144 -21 237 -80 351 -95 181 -273 323 -469 375 -59 15 -250 28 -290 18z m466 -371 l40 -36 -139 -141 c-127 -128 -140 -145 -145 -183 -3 -23 -14 -55 -26 -72 -20 -27 -21 -42 -21 -235 l0 -206 -75 0 -75 0 0 205 c0 201 0 205 -25 241 -14 20 -25 45 -25 56 0 54 77 128 134 128 25 0 53 23 170 140 78 77 142 140 143 140 2 0 21 -17 44 -37z"></path><path id="pAq0m4NEK" d="M2819 4408 c-12 -40 -28 -109 -35 -153 -15 -81 -20 -287 -9 -305 3 -6 51 -10 111 -10 l104 0 0 109 c0 126 20 251 55 349 14 38 25 72 25 76 0 3 -52 6 -115 6 l-114 0 -22 -72z"></path><path id="pANQLqBZo" d="M2956 3392 c-9 -15 114 -192 134 -192 12 0 110 -98 110 -110 0 -10 129 -109 167 -129 12 -6 24 -8 26 -4 3 5 6 62 8 128 l3 120 -100 98 -100 97 -122 0 c-66 0 -123 -4 -126 -8z"></path><path id="pT6i7ojur" d="M4391 3044 c-90 -34 -216 -54 -343 -54 l-109 0 3 -107 3 -108 50 -5 c86 -9 245 7 368 36 l117 29 0 117 c0 88 -3 118 -12 117 -7 -1 -42 -12 -77 -25z"></path></g></g><g id="l1C4Xt6bLjG1cFscegUOMq1" fill="rgb(0,0,0)" style="transform: none;"><g><path id="pDy0IQaZB" d="M4225 4369 c-83 -82 -160 -152 -173 -154 -12 -3 -33 -7 -46 -10 -40 -8 -93 -66 -106 -114 -10 -37 -9 -51 5 -87 9 -23 23 -48 31 -54 11 -10 14 -51 14 -221 l0 -209 105 0 105 0 0 206 c0 193 1 208 21 235 12 17 23 49 26 72 5 38 18 55 159 197 l154 155 -47 45 c-27 25 -59 55 -73 67 l-26 22 -149 -150z"></path></g></g></svg>
